<?xml version="1.0" encoding="UTF-8"?>
<svg id="Layer_1" data-name="Layer 1" xmlns="http://www.w3.org/2000/svg" viewBox="0 0 111.96 112.01">
  <defs>
    <style>
      .cls-1 {
        fill: #023452;
      }

      .cls-2 {
        fill: #f47d20;
      }

      .cls-3 {
        fill: #fff;
      }
    </style>
  </defs>
  <path class="cls-1" d="m111.96,58.26c-12.02-.02-22.32-7.31-26.76-17.72-.02,0-.04,0-.07,0-16.09,0-29.13-13.04-29.13-29.13,0-4.03.82-7.87,2.3-11.36-.76-.03-1.53-.05-2.3-.05C25.62,0,.89,24.19.03,54.36h-.03v56.5c0,.63.51,1.15,1.15,1.15h55.24c30-.21,54.39-23.99,55.57-53.75Z"/>
  <g>
    <path class="cls-3" d="m14.21,72.08v7.17h-4.5v-19.39h6.31c1.4,0,2.6.15,3.58.43.99.29,1.8.69,2.42,1.2.62.52,1.08,1.12,1.36,1.82.28.7.43,1.46.43,2.29,0,.63-.08,1.23-.25,1.78s-.42,1.07-.75,1.55c-.33.48-.74.9-1.22,1.27s-1.04.68-1.67.92c.3.15.58.34.84.56.26.22.49.49.68.81l4.13,6.75h-4.07c-.75,0-1.3-.28-1.62-.85l-3.22-5.63c-.14-.25-.31-.43-.5-.53s-.46-.16-.81-.16h-1.14Zm0-3.1h1.81c.61,0,1.13-.08,1.56-.23.43-.15.78-.37,1.06-.65s.47-.6.6-.96c.13-.37.19-.76.19-1.19,0-.85-.28-1.52-.83-2-.55-.48-1.41-.72-2.57-.72h-1.81v5.75Z"/>
    <path class="cls-3" d="m45.01,69.55c0,1.4-.24,2.69-.73,3.88s-1.17,2.21-2.04,3.07c-.88.87-1.94,1.54-3.18,2.02-1.24.48-2.61.73-4.12.73h-7.53v-19.39h7.53c1.51,0,2.88.24,4.12.73,1.24.49,2.3,1.16,3.18,2.02.88.86,1.56,1.88,2.04,3.07s.73,2.47.73,3.87Zm-4.61,0c0-.96-.13-1.82-.37-2.6-.25-.77-.61-1.43-1.07-1.96s-1.04-.95-1.71-1.24c-.68-.29-1.44-.43-2.3-.43h-3.01v12.47h3.01c.86,0,1.63-.15,2.3-.43.67-.29,1.24-.7,1.71-1.24.47-.54.82-1.19,1.07-1.96.25-.77.37-1.64.37-2.61Z"/>
    <path class="cls-3" d="m57.59,71.44c.16.36.32.74.47,1.12.15-.39.31-.77.48-1.14.17-.37.34-.73.52-1.07l4.98-9.81c.09-.17.18-.3.27-.39s.2-.16.31-.21c.11-.04.25-.07.39-.07h3.95v19.38h-3.97v-11.15c0-.54.03-1.13.08-1.76l-5.14,9.97c-.16.31-.38.55-.65.71-.27.16-.58.24-.92.24h-.61c-.35,0-.65-.08-.92-.24s-.49-.39-.65-.71l-5.16-9.98c.03.31.06.62.08.92s.03.59.03.84v11.15h-3.97v-19.38h3.95c.15,0,.28.02.39.07.11.05.22.11.31.21s.18.23.27.39l4.99,9.85c.18.34.35.69.51,1.05Z"/>
  </g>
  <g>
    <path class="cls-2" d="m23.93,93c0,1.09-.19,2.09-.56,2.99s-.88,1.67-1.52,2.32-1.39,1.15-2.25,1.5-1.79.53-2.77.53-1.9-.18-2.76-.55-1.62-.87-2.26-1.52-1.15-1.42-1.53-2.32-.56-1.88-.56-2.96v-12.37h3.56v6.5c.19-.24.42-.46.7-.65s.57-.35.88-.47.64-.21.98-.28.67-.1.99-.1c.99,0,1.91.18,2.77.55s1.61.88,2.25,1.54,1.15,1.44,1.52,2.33.56,1.88.56,2.94Zm-3.57,0c0-.54-.09-1.04-.28-1.5s-.44-.86-.76-1.2-.7-.6-1.12-.79-.89-.29-1.37-.29-.94.11-1.37.32-.8.49-1.12.84-.57.75-.75,1.21-.27.92-.27,1.41c0,.54.09,1.04.27,1.49s.43.86.75,1.2.7.6,1.12.8.89.29,1.37.29.94-.1,1.37-.29.8-.46,1.12-.8.57-.74.76-1.2.28-.96.28-1.49Z"/>
    <path class="cls-2" d="m30.08,82.38c0,.33-.06.64-.19.92s-.3.54-.51.75-.47.38-.76.51-.6.19-.93.19-.64-.06-.93-.19-.54-.29-.75-.51-.38-.46-.51-.75-.19-.59-.19-.92.06-.63.19-.92.29-.54.51-.75.46-.38.75-.51.6-.19.93-.19.64.06.93.19.54.29.76.51.39.46.51.75.19.6.19.92Zm-.61,17.7h-3.57v-13.92h3.57v13.92Z"/>
    <path class="cls-2" d="m39.15,100.08c-.86,0-1.66-.16-2.42-.49s-1.41-.77-1.98-1.34-1.01-1.23-1.34-1.98-.49-1.56-.49-2.42v-4.13h-1.73v-3.54h1.73v-5.56h3.54v5.56h5.38v3.54h-5.38v4.13c0,.37.07.72.21,1.05s.33.61.57.85.53.44.86.58.68.21,1.05.21h2.69v3.54h-2.69Z"/>
    <path class="cls-2" d="m49.37,96.68c.14.04.28.07.42.08s.28.02.42.02c.35,0,.68-.05,1-.14s.62-.23.9-.41.53-.39.75-.65.4-.54.54-.85l2.6,2.61c-.33.47-.71.89-1.14,1.26s-.89.69-1.39.95-1.02.46-1.57.59-1.12.2-1.7.2c-.98,0-1.9-.18-2.76-.55s-1.62-.87-2.26-1.52-1.15-1.42-1.53-2.32-.56-1.88-.56-2.96.19-2.11.56-3.02.88-1.69,1.53-2.33,1.4-1.14,2.26-1.49,1.78-.53,2.76-.53c.58,0,1.15.07,1.7.21s1.08.34,1.58.6.96.58,1.4.96.81.8,1.14,1.27l-6.65,8.02Zm1.82-7.32c-.16-.06-.33-.1-.49-.12s-.33-.03-.5-.03c-.49,0-.94.09-1.37.27s-.8.43-1.12.76-.57.73-.75,1.19-.27.99-.27,1.57c0,.13,0,.28.02.44s.03.33.06.5.07.33.11.49.1.29.17.42l4.13-5.48Z"/>
    <path class="cls-2" d="m65.45,100.08h-8.11v-3.54h8.11c.24,0,.45-.09.62-.26s.26-.38.26-.62-.09-.42-.26-.49-.38-.12-.62-.12h-3.69c-.62,0-1.19-.12-1.73-.35s-1.01-.55-1.4-.96-.71-.87-.94-1.41-.34-1.11-.34-1.73.11-1.19.34-1.73.54-1.01.94-1.4.87-.71,1.4-.94,1.11-.34,1.73-.34h7.19v3.54h-7.19c-.24,0-.45.09-.62.26s-.26.38-.26.62.09.47.26.64.38.27.62.27h3.69c.61,0,1.18.1,1.72.31s1.01.49,1.4.85.71.8.95,1.31.35,1.07.35,1.68-.12,1.19-.35,1.72-.55,1-.95,1.4-.87.72-1.4.95-1.11.34-1.72.34Z"/>
  </g>
</svg>